<mxfile host="Electron" agent="Mozilla/5.0 (X11; Linux x86_64) AppleWebKit/537.36 (KHTML, like Gecko) draw.io/26.1.1 Chrome/134.0.6998.205 Electron/35.7.5 Safari/537.36" version="26.1.1">
  <diagram name="Page-1" id="sXsMLt0qcEXCTc8aiTOw">
    <mxGraphModel dx="333" dy="75" grid="1" gridSize="10" guides="1" tooltips="1" connect="1" arrows="1" fold="1" page="1" pageScale="1" pageWidth="160" pageHeight="120" math="0" shadow="0">
      <root>
        <mxCell id="0" />
        <mxCell id="1" parent="0" />
        <mxCell id="-o7GHWapkjQqzSdp4ICU-2" value="" style="group" vertex="1" connectable="0" parent="1">
          <mxGeometry x="100" y="240" width="40" height="120" as="geometry" />
        </mxCell>
        <mxCell id="d0wotKpeYn9yXLSfD2W0-93" value="" style="ellipse;whiteSpace=wrap;html=1;fillColor=none;strokeWidth=1;" parent="-o7GHWapkjQqzSdp4ICU-2" vertex="1">
          <mxGeometry width="40" height="120" as="geometry" />
        </mxCell>
        <mxCell id="d0wotKpeYn9yXLSfD2W0-94" value="" style="ellipse;whiteSpace=wrap;html=1;fillColor=#000000;strokeColor=default;align=center;verticalAlign=middle;fontFamily=Helvetica;fontSize=12;fontColor=default;" parent="-o7GHWapkjQqzSdp4ICU-2" vertex="1">
          <mxGeometry x="15" y="70" width="10" height="10" as="geometry" />
        </mxCell>
        <mxCell id="d0wotKpeYn9yXLSfD2W0-95" value="" style="ellipse;whiteSpace=wrap;html=1;fillColor=#000000;strokeColor=default;align=center;verticalAlign=middle;fontFamily=Helvetica;fontSize=12;fontColor=default;" parent="-o7GHWapkjQqzSdp4ICU-2" vertex="1">
          <mxGeometry x="15" y="100" width="10" height="10" as="geometry" />
        </mxCell>
        <mxCell id="d0wotKpeYn9yXLSfD2W0-96" value="" style="ellipse;whiteSpace=wrap;html=1;fillColor=#000000;strokeColor=default;align=center;verticalAlign=middle;fontFamily=Helvetica;fontSize=12;fontColor=default;" parent="-o7GHWapkjQqzSdp4ICU-2" vertex="1">
          <mxGeometry x="15" y="10" width="10" height="10" as="geometry" />
        </mxCell>
        <mxCell id="d0wotKpeYn9yXLSfD2W0-97" value="" style="ellipse;whiteSpace=wrap;html=1;fillColor=#000000;strokeColor=default;align=center;verticalAlign=middle;fontFamily=Helvetica;fontSize=12;fontColor=default;" parent="-o7GHWapkjQqzSdp4ICU-2" vertex="1">
          <mxGeometry x="15" y="40" width="10" height="10" as="geometry" />
        </mxCell>
        <mxCell id="-o7GHWapkjQqzSdp4ICU-1" value="" style="group" vertex="1" connectable="0" parent="1">
          <mxGeometry x="180" y="240" width="40" height="120" as="geometry" />
        </mxCell>
        <mxCell id="d0wotKpeYn9yXLSfD2W0-103" value="" style="ellipse;whiteSpace=wrap;html=1;fillColor=none;strokeWidth=1;" parent="-o7GHWapkjQqzSdp4ICU-1" vertex="1">
          <mxGeometry width="40" height="120" as="geometry" />
        </mxCell>
        <mxCell id="d0wotKpeYn9yXLSfD2W0-104" value="" style="ellipse;whiteSpace=wrap;html=1;fillColor=#000000;strokeColor=default;align=center;verticalAlign=middle;fontFamily=Helvetica;fontSize=12;fontColor=default;" parent="-o7GHWapkjQqzSdp4ICU-1" vertex="1">
          <mxGeometry x="15" y="70" width="10" height="10" as="geometry" />
        </mxCell>
        <mxCell id="d0wotKpeYn9yXLSfD2W0-105" value="" style="ellipse;whiteSpace=wrap;html=1;fillColor=#000000;strokeColor=default;align=center;verticalAlign=middle;fontFamily=Helvetica;fontSize=12;fontColor=default;" parent="-o7GHWapkjQqzSdp4ICU-1" vertex="1">
          <mxGeometry x="15" y="100" width="10" height="10" as="geometry" />
        </mxCell>
        <mxCell id="d0wotKpeYn9yXLSfD2W0-106" value="" style="ellipse;whiteSpace=wrap;html=1;fillColor=#000000;strokeColor=default;align=center;verticalAlign=middle;fontFamily=Helvetica;fontSize=12;fontColor=default;" parent="-o7GHWapkjQqzSdp4ICU-1" vertex="1">
          <mxGeometry x="15" y="10" width="10" height="10" as="geometry" />
        </mxCell>
        <mxCell id="d0wotKpeYn9yXLSfD2W0-107" value="" style="ellipse;whiteSpace=wrap;html=1;fillColor=#000000;strokeColor=default;align=center;verticalAlign=middle;fontFamily=Helvetica;fontSize=12;fontColor=default;" parent="-o7GHWapkjQqzSdp4ICU-1" vertex="1">
          <mxGeometry x="15" y="40" width="10" height="10" as="geometry" />
        </mxCell>
        <mxCell id="d0wotKpeYn9yXLSfD2W0-99" value="" style="endArrow=none;dashed=1;html=1;rounded=0;entryX=0;entryY=0.5;entryDx=0;entryDy=0;exitX=-0.012;exitY=0.539;exitDx=0;exitDy=0;curved=1;strokeColor=#0000FF;strokeWidth=2;exitPerimeter=0;" parent="1" source="d0wotKpeYn9yXLSfD2W0-91" target="d0wotKpeYn9yXLSfD2W0-90" edge="1">
          <mxGeometry width="50" height="50" relative="1" as="geometry">
            <mxPoint x="90" y="300" as="sourcePoint" />
            <mxPoint x="100" y="260" as="targetPoint" />
            <Array as="points">
              <mxPoint x="70" y="290" />
            </Array>
          </mxGeometry>
        </mxCell>
        <mxCell id="d0wotKpeYn9yXLSfD2W0-112" value="" style="endArrow=none;dashed=1;html=1;rounded=0;curved=1;strokeColor=#0000FF;strokeWidth=2;entryX=1;entryY=0.5;entryDx=0;entryDy=0;exitX=1;exitY=0.5;exitDx=0;exitDy=0;" parent="1" source="d0wotKpeYn9yXLSfD2W0-108" target="d0wotKpeYn9yXLSfD2W0-101" edge="1">
          <mxGeometry width="50" height="50" relative="1" as="geometry">
            <mxPoint x="240" y="350" as="sourcePoint" />
            <mxPoint x="250" y="300" as="targetPoint" />
            <Array as="points">
              <mxPoint x="250" y="320" />
            </Array>
          </mxGeometry>
        </mxCell>
        <mxCell id="d0wotKpeYn9yXLSfD2W0-90" value="" style="ellipse;whiteSpace=wrap;html=1;fillColor=none;strokeColor=#FF0000;strokeWidth=2;" parent="1" vertex="1">
          <mxGeometry x="90" y="240" width="60" height="60" as="geometry" />
        </mxCell>
        <mxCell id="d0wotKpeYn9yXLSfD2W0-91" value="" style="ellipse;whiteSpace=wrap;html=1;fillColor=none;strokeColor=#FF0000;strokeWidth=2;" parent="1" vertex="1">
          <mxGeometry x="90" y="300" width="60" height="30" as="geometry" />
        </mxCell>
        <mxCell id="d0wotKpeYn9yXLSfD2W0-100" value="" style="ellipse;whiteSpace=wrap;html=1;fillColor=none;strokeColor=#FF0000;strokeWidth=2;" parent="1" vertex="1">
          <mxGeometry x="170" y="240" width="60" height="30" as="geometry" />
        </mxCell>
        <mxCell id="d0wotKpeYn9yXLSfD2W0-101" value="" style="ellipse;whiteSpace=wrap;html=1;fillColor=none;strokeColor=#FF0000;strokeWidth=2;" parent="1" vertex="1">
          <mxGeometry x="170" y="270" width="60" height="60" as="geometry" />
        </mxCell>
        <mxCell id="d0wotKpeYn9yXLSfD2W0-108" value="" style="ellipse;whiteSpace=wrap;html=1;fillColor=none;strokeColor=#FF0000;strokeWidth=2;" parent="1" vertex="1">
          <mxGeometry x="170" y="330" width="60" height="30" as="geometry" />
        </mxCell>
        <mxCell id="d0wotKpeYn9yXLSfD2W0-98" value="" style="ellipse;whiteSpace=wrap;html=1;fillColor=none;strokeColor=#FF0000;strokeWidth=2;" parent="1" vertex="1">
          <mxGeometry x="90" y="330" width="60" height="30" as="geometry" />
        </mxCell>
      </root>
    </mxGraphModel>
  </diagram>
</mxfile>
